<svg xmlns="http://www.w3.org/2000/svg" xmlns:xlink="http://www.w3.org/1999/xlink" viewBox="0 0 150.48 150.48"><defs><style>.cls-1{fill:url(#linear-gradient);}.cls-2{fill:url(#linear-gradient-2);}.cls-3{fill:url(#linear-gradient-3);}.cls-4{fill:url(#linear-gradient-4);}</style><linearGradient id="linear-gradient" x1="60.18" y1="75.24" x2="90.31" y2="75.24" gradientUnits="userSpaceOnUse"><stop offset="0" stop-color="#fff33b"/><stop offset="0.04" stop-color="#fee72e"/><stop offset="0.12" stop-color="#fed51b"/><stop offset="0.2" stop-color="#fdca10"/><stop offset="0.28" stop-color="#fdc70c"/><stop offset="0.67" stop-color="#f3903f"/><stop offset="0.89" stop-color="#ed683c"/><stop offset="1" stop-color="#e93e3a"/></linearGradient><linearGradient id="linear-gradient-2" x1="93.62" y1="49.59" x2="108.13" y2="49.59" xlink:href="#linear-gradient"/><linearGradient id="linear-gradient-3" x1="0" y1="75.24" x2="150.48" y2="75.24" xlink:href="#linear-gradient"/><linearGradient id="linear-gradient-4" x1="40.78" y1="88.08" x2="109.69" y2="88.08" xlink:href="#linear-gradient"/></defs><title>Asset 6instagram</title><g id="Layer_2" data-name="Layer 2"><g id="Layer_1-2" data-name="Layer 1"><path class="cls-1" d="M75.24,90.3A15,15,0,1,0,60.18,75.24,15.08,15.08,0,0,0,75.24,90.3Z"/><polygon class="cls-2" points="108.13 56.81 108.13 44.19 108.13 42.31 106.24 42.31 93.62 42.35 93.67 56.86 108.13 56.81"/><path class="cls-3" d="M75.24,0a75.24,75.24,0,1,0,75.24,75.24A75.32,75.32,0,0,0,75.24,0ZM118,66.46v35A16.56,16.56,0,0,1,101.49,118H49A16.56,16.56,0,0,1,32.45,101.5V49A16.56,16.56,0,0,1,49,32.45h52.5A16.56,16.56,0,0,1,118,49Z"/><path class="cls-4" d="M98.65,75.24a23.41,23.41,0,1,1-45.09-8.78H40.78v35A8.2,8.2,0,0,0,49,109.69h52.5a8.2,8.2,0,0,0,8.2-8.19v-35H96.91A23.14,23.14,0,0,1,98.65,75.24Z"/></g></g></svg>