<svg xmlns="http://www.w3.org/2000/svg" xmlns:xlink="http://www.w3.org/1999/xlink" viewBox="0 0 238.32 226.6"><defs><style>.cls-1{fill:none;stroke-miterlimit:10;stroke:url(#linear-gradient);}.cls-2,.cls-3,.cls-4,.cls-5,.cls-6,.cls-7,.cls-8{fill-rule:evenodd;}.cls-2{fill:url(#linear-gradient-2);}.cls-3{fill:url(#linear-gradient-3);}.cls-4{fill:url(#linear-gradient-4);}.cls-5{fill:url(#linear-gradient-5);}.cls-6{fill:url(#linear-gradient-6);}.cls-7{fill:url(#linear-gradient-7);}.cls-8{fill:url(#linear-gradient-8);}</style><linearGradient id="linear-gradient" x1="1.43" y1="95.59" x2="238.32" y2="95.59" gradientUnits="userSpaceOnUse"><stop offset="0" stop-color="#fff33b"/><stop offset="0.04" stop-color="#fee72e"/><stop offset="0.12" stop-color="#fed51b"/><stop offset="0.2" stop-color="#fdca10"/><stop offset="0.28" stop-color="#fdc70c"/><stop offset="0.67" stop-color="#f3903f"/><stop offset="0.89" stop-color="#ed683c"/><stop offset="1" stop-color="#e93e3a"/></linearGradient><linearGradient id="linear-gradient-2" x1="0" y1="89.64" x2="157.71" y2="89.64" xlink:href="#linear-gradient"/><linearGradient id="linear-gradient-3" x1="86.25" y1="132.4" x2="198.76" y2="132.4" xlink:href="#linear-gradient"/><linearGradient id="linear-gradient-4" x1="59.43" y1="28.53" x2="87.28" y2="28.53" xlink:href="#linear-gradient"/><linearGradient id="linear-gradient-5" x1="92.36" y1="36.47" x2="115.67" y2="36.47" xlink:href="#linear-gradient"/><linearGradient id="linear-gradient-6" x1="52.49" y1="56.94" x2="91.4" y2="56.94" xlink:href="#linear-gradient"/><linearGradient id="linear-gradient-7" x1="7.76" y1="81.54" x2="17.17" y2="81.54" xlink:href="#linear-gradient"/><linearGradient id="linear-gradient-8" x1="12.2" y1="67.86" x2="31" y2="67.86" xlink:href="#linear-gradient"/></defs><title>Asset 4logo</title><g id="Layer_2" data-name="Layer 2"><g id="Layer_1-2" data-name="Layer 1"><path class="cls-1" d="M42.79,2.75a19.09,19.09,0,0,0,2.71-.53,2,2,0,0,1,1.75.26c.66.43.4.6,1.42.66s1.95.3,3.27.3a34.55,34.55,0,0,0,3.54-.23,2.65,2.65,0,0,0,1.65-.56C57.52,2.22,59,.53,59.54.5A19.92,19.92,0,0,1,63,1.13c.76.23,3,1,4.13,1.42s3.07,1.52,3.63,1.72a9.38,9.38,0,0,0,2.28.43c.2-.07,1-.5,1.22-.37a3.92,3.92,0,0,0,1.19.38c.1,0,.16-.61.92,0A25.93,25.93,0,0,1,79.89,8a47.83,47.83,0,0,0,3.23,3.83A15.93,15.93,0,0,1,85,14.47a33.14,33.14,0,0,0,1.78,2.91,1.48,1.48,0,0,0,1.62.69c.69-.13,1.19-.56,2.21-.72s2-.27,2.38-.76a7.69,7.69,0,0,1,.89-1.32c.17-.07,1.56.59,2.18.56a5.55,5.55,0,0,0,2.81-.66c1.16-.66,3.14-2.15,3.77-2.41s2.44-1.13,2.67-1.16,4.89.53,5.68.76,4,3,4.6,3.57.66.82,1.45.89,1.68-.27,1.88.26,5.15,3,6.57,3.57a11.1,11.1,0,0,0,3.77.56c1.26.13,11.73.8,11.73.8s6.77-6.88,7.23-7.17,2.31-2.08,3.5-2.08,3.87-.37,4.66-.4,2.87-1.09,3.4-1.11,14.73-.64,16-.41,9.18,1.88,9.32,2.05,1.22,2.08,1.94,2.24,2.52-.36,3.41-.36a14.66,14.66,0,0,1,3,.69,5.44,5.44,0,0,0,2.21-.06c.36-.17,1.09-2,2.18-2.61s1-1.62,1.95-2.08a41.7,41.7,0,0,0,3.76-2.48,23.86,23.86,0,0,1,3-1.35A7.82,7.82,0,0,1,209,6.51c.13,0,.29-.16.79.17s.23.66,1,.56,1.12-.2,1.22.1-.16,1.12,0,1.95.26,1.22.63,1.52.92.69.92,1.19.07,1.19.3,1.25.86-.43,1.06.13.26,1.42.86,1.59,1.55-.4,1.88.13,0,1.19.53,1.12,1.38-1.18,1.71-.79.67,1.29,1,1.29,1.68-1.35,2-1.55.66-.7.69-.17-1.12,1.62-1.35,2.08-.66.73-.59,1.26.23,1,.69.59a3.7,3.7,0,0,1,1.25-.59,7.27,7.27,0,0,0-.89,1.65,4.77,4.77,0,0,0,.3,1.42c.07.36-.2.53-.2,1s.27.9.27,1.23-.24.46-.07.82.1.4.59.63a6.09,6.09,0,0,1,1.39.69,8.92,8.92,0,0,1,.89,1.49c.27.63.63,1.16,1.06.73s1.12-1.16,1.29-.8.1,1.09.3,1.19.79-.26.82,0,.07,2.18.43,2.55,4,.59,4.86,1.22a19.82,19.82,0,0,1,2.11,2.54c.4.37,1.06.27,1.06.83s-.4.86-.43,1.45.53,1.42.43,1.75-.63.6-.63,1.19a15.51,15.51,0,0,1,.1,2.05,3.28,3.28,0,0,1-.76,1.09c-.13.13-.36.36.23.92a6.3,6.3,0,0,1,.93,3c0,.47-7.17,5.25-7.54,5.39s-4.42-.83-4.52-.73a30,30,0,0,1-1.82,3c-.49.49-1.42.69-1.52,1.49a37.16,37.16,0,0,1-1.85,5.08c-.19.3-2.47,2.45-2.64,2.74s-.43.14-.36.9.43.89.23,1.58-1.32,2.71-1.36,3.3.33,1.39.37,2.09S213,75,212.9,75.48s-.26.83-.46,1.46-1.16,1.12-1,1.48S213,80.31,213,80.73s-1.19,4-1.88,4.23a37.86,37.86,0,0,0-3.67,1c-.23.26-2.38,1.91-2.48,2.51s.37,1.38.43,1.88a5.25,5.25,0,0,1-.56,2c-.26.7-.92,7.27-1.05,7.7s-1.06.17-1.23.53-.1,1.09-.39,1.29-3.87.79-4,.86a5,5,0,0,0-.89,1.09,6,6,0,0,1-1.52,1.65c-.69.46-1.69.89-1.85,1.52s-.56,3.33-.69,3.73S192,112,191.7,112.68s.1,1.88-.4,2.64-2.91,4.75-2.91,4.75.33,3.11.27,3.7-.83,1.16-1.75,2.38-1.42,2-1.39,2.31.13,1-.3,1.36-.82.4-.69.86.66,1.48.49,1.68-2.74,1.49-3.3,2.18-1.09,1.09-1.72,1.89-1,1-.89,1.61.1,1.36.17,2.12.26,1.22-.2,1.48-2.48.86-2.61,1.19.33.89-.27,1.29-1.12.69-1.48.53-1-.76-1.52-.66-3,.66-3.11.3a27.34,27.34,0,0,0-.79-2.88,14,14,0,0,1-2.51-.76c-.26-.26-2.25-2.44-2.25-2.44a10.89,10.89,0,0,0,0-2.08c-.13-.13-2.68-1.22-3-1.72s-1.42-2.68-1.72-2.61-.89,4.13-1.35,4.63-5.16,1-5.26.69a8.28,8.28,0,0,0-.49-2c-.3-.5-.69-1.06-.93-1s-5.18,4.56-5.61,4.69a10.71,10.71,0,0,1-1.72.16,7.26,7.26,0,0,0-.86,1.82c-.39,1.19-.92,3.27-1.15,3.6s-1-.3-1.49,0-.83.92-1.29,1.09a7.46,7.46,0,0,1-1.72,0,1.68,1.68,0,0,0-.85,1.09,1.35,1.35,0,0,1-.47.86l-1.52.29a.84.84,0,0,0-.69.76c-.1.7-.17,1.46-.17,1.46l-9.34,8.22a8.19,8.19,0,0,1,.72,2.31c-.06.57-.66.86-.49,1.23s1.12,1.32,1.15,1.58a8.54,8.54,0,0,1-.62,2.18,7.05,7.05,0,0,0-1.09,2.91,22.31,22.31,0,0,1-.2,3.43,17.62,17.62,0,0,1-2.25,3,14,14,0,0,0-1.55,2.25,8.17,8.17,0,0,0-.33,1.09c-.26.82-.1.69-.59,1.28s.26.63-.5.6-.86.1-1,.23,0,.1-.13.63-.14,1-.5,1a5.56,5.56,0,0,1-.86,0l.27-.82s0-.5-.47-.5-.69.17-1-.16-.79-.83-.53-1,.5-.42.4-.42-.66.33-.82-.1-1.06-1.66-.86-1.82.49-.56.29-.56-.86.26-1,.23-2.28-1.36-2.41-1.29-.2.27.26.63,1.52,1.52,1.39,1.75-.27.46-.5.1-.46-.86-.69-.86-1,.07-1-.17-.16-2.7-.16-3a1,1,0,0,0-.33-.63,19.94,19.94,0,0,0-.4,2.38c0,.56-.23.76.43,1.28s2,2,2.45,2.32.49.06.62.36a5.36,5.36,0,0,1,.27,1.45c0,.3.23.89.1.88s-1-.12-.86.18a1.49,1.49,0,0,0,.3.46,2.07,2.07,0,0,1,.19.73.86.86,0,0,0,.2.66.65.65,0,0,1,.07.83c-.2.43-1.42.52-1.42.52h-4.07s-.36-.49-.72-.23.13.3-1,.5a48.55,48.55,0,0,1-5,.66,2.6,2.6,0,0,1-1.82-1.19,11.35,11.35,0,0,1-.43-1.92c.1-.23.2-.76.27-1a3.89,3.89,0,0,0-.1-1s-.6,1.32-.73,1.62.17.63.17,1.16.43.76-.2.89-.69.23-1.09,0-.6-.7-.63-.5-.26.46-.06.73.43.29.39.43-.46.19-.56.23-.36-.3-.43-.93a4.78,4.78,0,0,0-.2-1s-1.25-.79-1.19-.33.43.76.63,1.09.33.63.23.86,0,.72-.53.43-.36-.3-.56-.3-.46.36-.59,0a2.37,2.37,0,0,0-.73-1c-.26-.2-.73-.53-.73-.53s-1.48-1.71-1.65-1.78-.86-.2-.76-.13a4.54,4.54,0,0,1,.93,1,3.06,3.06,0,0,1,.39.89c.07.36.3,1,.34,1.35a1.86,1.86,0,0,1-.34.93l-.62-.17s.39.37-.1.37a1.41,1.41,0,0,1-.89-.4,2.2,2.2,0,0,0,.16-.49c.07-.3.3-.63-.13-.9s-1.06-.29-1.12-.62a2.63,2.63,0,0,0-.3-1c-.17-.17-.46-.47-.63-.17s-.63.26-.63.26-.19,0-.23.07a2.41,2.41,0,0,0-.23.73,3.22,3.22,0,0,0,.07.86c.06.16.26.33.59.56A9.06,9.06,0,0,1,87.85,187c.16.3.26,1.36,0,1.46s-.57.16-.73-.2-.46-.56-.46-.79,0-.53-.27-.53-.43-.3-.43-.3,0-.53-.43-.4-1.09.2-1.19,0a5.83,5.83,0,0,1,0-1.23s.37-.33.3-.62a8.24,8.24,0,0,0-.36-.9c0-.09-.37-.29-.3-.56s.16-.56,0-.66a1.46,1.46,0,0,1-.57-.72c-.1-.3-.29-1.06-.29-1.06L83,179.4l-.53-.07s-.33-.1.07.73a17.43,17.43,0,0,1,.66,2.34,3.79,3.79,0,0,1,.39,1.33c0,.62-.06.36-.06,1.09a2.43,2.43,0,0,0,.26,1.55,3.12,3.12,0,0,1,.66,1.19c.2.66.36,1.09.36,1.09a7.11,7.11,0,0,0-1.25,0c-.36.06-.86.36-.86,0s-.1-1.26-.1-1.26A3.52,3.52,0,0,1,82.4,186a8.55,8.55,0,0,0,.06-1.45s-.06-.86-.13-.76a4.16,4.16,0,0,0-.56,1.12,9,9,0,0,0,0,1.36c0,.23,0,.59-.27.06a3,3,0,0,0-.66-1c-.2-.16-.59-.36-.59-.82s0-1.39-.2-1.42-.37,1.09-.3,1.58a5.09,5.09,0,0,0,1.16,1.69,5.56,5.56,0,0,1,.79,1.71c.07.4.1,1-.2,1.22s-.73.57-.92.24-.63-.27-.53-1.23a13.53,13.53,0,0,0-1-3.76c-.1-.27-.53.23-.4.63a18.43,18.43,0,0,1,.79,2.87c0,.63.1,1.22-.1,1.35a14.42,14.42,0,0,1-2,.43l-.3-.49-.86-.2a5.23,5.23,0,0,0-1-.53c-.5-.16-.89-.92-1.09-1a.88.88,0,0,0-.66,0c-.17.06-.5-.27-.5-.27s.14.56-.23.63-.86-.2-.79.1a3.62,3.62,0,0,1,.07,1.29c-.1.2-.47.39-.47.49s.23.56.13.66a3.21,3.21,0,0,1-1.58.17c-.17-.17-.63-.56-.63-.56s-.59.59-.76.33a7.94,7.94,0,0,0-.72-.86l-.53-1-.47.56-.52.16L65,188.52s0-.63-.23-.63-.4.06-.5,0-1.65-1-1.71-1.13-.56-.49,0-.69,1.36-.56,1.09-.76-.29,0-.92.1a3.32,3.32,0,0,1-2.28-.83,24.23,24.23,0,0,1-1.82-2.34c0-.23-.1-.6.23-.3s.7.3.67-.06-.17-.24-.53-.66-2-2.28-2-2.28l1.19.86a5.24,5.24,0,0,0,1.29.16c.07-.1.49-.13,0-.36s-.53-.4-.53-.4.24-1.68,0-1.65-.33.59-.53,1-.43.79-.63.39-.89-1.38-.89-1.38L55.51,174a14.63,14.63,0,0,1,1.65-.36c.3,0,.36-.23.56.33s.07,1.16.37,1.36.66.16.72,0-.26-.63-.26-.63-.63-1-.23-1.15,1-.5.69-.5a2.85,2.85,0,0,1-1-.07c-.1-.1-.43-1.35-.66-1.05s0,.76-.3,1a5.55,5.55,0,0,1-1.75.36l-.56-.52-1.29-3.31,1.45-.43.93.17s.53.49.73.36a9,9,0,0,1,1.35-.39l1.42-.27.76.07.3-.17-1-.43s-1.16-.76-1.06-1a4.12,4.12,0,0,1,.5-.59l1.95-.56-.1-.5-1.89.3s-1,0-1.05.59a2.86,2.86,0,0,1-.86,1.39l-.86.17-.5-1.13-.06,1.09a10.34,10.34,0,0,1-2.68-.89,14.2,14.2,0,0,1-1.15-1.58l.79-.6,1.12.2.56.36s0-.43.5-.36.66-.13.66-.13l1.65-.89.89-.23a3.29,3.29,0,0,0-1.15-.6c-.37,0-.66-.13-.86.23s.43.46-.36.6-1.66.39-1.36,0,.07-.83.33-1a6.62,6.62,0,0,1,1-.33c.43-.17,1.32-.83,1.18-.83l-1.78,0s0-1.85-.26-1.75-.3,1.25-.33,1.52a6.52,6.52,0,0,1-.93,2,2.78,2.78,0,0,1-1.25.59c-.43.1-.9.4-1,.3s-1.62-2.38-1.62-2.38a2.33,2.33,0,0,1,.43-1.15,1.83,1.83,0,0,1,1-.7,5.45,5.45,0,0,0,1.69-.79,19.72,19.72,0,0,1,3.07-2.28,3.37,3.37,0,0,1,.73,0,1.59,1.59,0,0,1,.62-.27,1.39,1.39,0,0,1,1,.5,1,1,0,0,0,.66.43s.76-.46,1-.36a.79.79,0,0,0,.56.13c.26,0,.76-.13.63-.23s-.66-.7-1.06-.66a3.89,3.89,0,0,0-1,.33c-.19.06,0-.47-.75-.5s-1.49-.13-1.82-.1a9.92,9.92,0,0,0-2.18,1.13c-.73.46-1.79,1.61-2.25,1.81a3.28,3.28,0,0,1-1.32.33c-.26,0-.49-.39-.73.07s-.59,1.09-.92.86a7.25,7.25,0,0,1-1-1.19l-1.26-3s-3.07-3.43-3.17-3.5-.86-.1-1.25-.43a3.29,3.29,0,0,1-.7-1l-.79-.13-3.93-2.64-4,0a13.07,13.07,0,0,0-3.57-.95c-1.88-.2-9.88-.1-9.88-.1l-2.57.62s-.5.83-.83.86-10.54-.29-11.33-.33-2.41-.39-2.48-.33a1,1,0,0,1,0-1.25A2.27,2.27,0,0,0,2.72,146a3,3,0,0,1,.34-1l-.4-1.06.53-1.29L4,141.45l-.86-.9,0-1.15a1,1,0,0,0-.06-1c-.33-.4-.66-.8-.56-1.09s-.7-.17,0-.8.1-1.38.26-1.78.5-1,.5-1v-1.09l-.4-1.85-.13-1.42.3-1.72s.89-.1.86-.56-.4-.43-.56-1.42-.63-6.84-.63-6.84A2.52,2.52,0,0,1,2.43,117a3.39,3.39,0,0,0,.36-1.88c-.13-.56-.4-.47,0-1.42a6,6,0,0,0,.5-1.52,3.65,3.65,0,0,0-.46-1.29,7.67,7.67,0,0,1-.6-1.52,6,6,0,0,0,.53-1.26c0-.33-.2-.69,0-.89a1.29,1.29,0,0,0,.5-.72,3.62,3.62,0,0,0,.43-1.72,9.4,9.4,0,0,0-.6-2.45l.27-1L2.89,100l.46-.76s.37-1.32.6-2a6.66,6.66,0,0,0,.26-1.66l.3-1,1.06-.17A.94.94,0,0,1,6.66,94a5,5,0,0,0,1.09.2l1.12-.1a3,3,0,0,0,1-.17c.63-.2.86-1.39.86-1.39l.4-1.15.36-.83a1.56,1.56,0,0,0,.3-.79c0-.33-.07-.83-.17-1.36a8.31,8.31,0,0,1-.06-1.45l.92-1.32,1-1.26.82-1.12a4,4,0,0,1,1-.79c.56-.3.66-.6.66-.6a4.48,4.48,0,0,1-.49-.72c0-.1.33-1,.33-1a5.46,5.46,0,0,1,1.39-1,6,6,0,0,0,1.28-.79l1,.13.69-.76.7-.76-.27-1.16s-.3-.89.07-1.22a2.88,2.88,0,0,1,.56-.43,1.68,1.68,0,0,0,.26-1.12,3.93,3.93,0,0,0-.79-1.82,4,4,0,0,1-.2-1.72l.5-1.18.2-.9A1.44,1.44,0,0,1,22.58,67c.66.27,1.25.83,1.75.23a7.53,7.53,0,0,0,1.09-2.37,12,12,0,0,0,.23-2.25c0-.46.16-.86-.33-1.09a2.38,2.38,0,0,1-1.16-1.06c-.13-.36-.66-.59-.43-1.22s.56-.86.56-1.62A9.52,9.52,0,0,0,24,55.73s-.37-1.85-.47-2.18.24.07-.52-.43a14.15,14.15,0,0,1-2.68-2.61,9.23,9.23,0,0,1-1.55-2.67,2.1,2.1,0,0,1,.3-1.82c.52-.86,1.71-3.63,1.71-3.63s1.62-1,1.65-1.72-.56-2.18-.59-2.84.13-.4.43-1.52a3.43,3.43,0,0,0,.23-2.22A5.41,5.41,0,0,1,22.28,32c.1-.86.4-3.7.4-3.7L24,24.75s2.28-1.42,3.74-2.45a10.32,10.32,0,0,0,3.13-3.53A12.26,12.26,0,0,0,32,16.22c.1-.59,0-.85.33-1.38a2.89,2.89,0,0,0,.53-1.49c.13-.86-.43-4.06-.23-4.39s.72-1.69,1.22-1.85A10.67,10.67,0,0,0,36.88,6a30.92,30.92,0,0,0,2.34-2.27,8.82,8.82,0,0,1,2.09-1.23C41.5,2.48,42.79,2.75,42.79,2.75Z"/><path class="cls-2" d="M113.86,11.68c15.31,7.05,20.35,16.93,19,27.29-2.27,9.77-11.91,18.45-19.4,23.73-15.78,11.1-38.63,20.73-58,14.64C40.2,72.57,43.62,55.2,43.24,57.09c-1.47,7.29.22,15.5,6.2,20.46,5.43,4.5,14.65,5.7,21.46,5.68a79.49,79.49,0,0,0,18.37-2.6A104.34,104.34,0,0,1,77.64,85.9c-16.07,6.09-29.5,3.52-43.27,7C9.14,99.25,0,123.08,0,123.08S11.28,99,57.31,100.21c.35,0,1.35.1,1.7.08-18,12-28,29.26-10.74,67.3-3.59-55.2,48.87-59.46,77.29-75C168.76,69,171.8,22.73,113.86,11.68Z"/><path class="cls-3" d="M173.62,131.92c7.87,4.71,13.77,5.91,25.14,5.36l-3.94-2.19c-5.35-2.29-6.34-3-11.15-6.44-16.07-12-14.43-37.4-15.63-55.44-.78-10.3-2-19.84-5.4-28.26a56.35,56.35,0,0,0-3.93-6.75c4.87,16.56,4.48,25.7-5.21,45.73-10.61,21.92,9.18,33.89-5.47,36-10.05,1.42-7.32,3.17-6.77,8.42.32,3.6-2,3.71-5.91,4.15.66,6.67,1,5.8-4.81,6.67-6.12.87-.44,15.09-12.79,12.36-7.76-1.75-12.36-9.3-23.07-9.08-26.45,26.13,16.4,43.29,32.25,81.67,2.63-16.18-16.94-39,7.55-54.56-7.11,19.46-8.09,43.08,10.27,57.07-1.42-5.14-4.15-10.06-4.81-16.4-.87-8.74-.22-18.8,2.3-27,11.48-38.16-3.72,23.61,36.51,30.39-8.41-9.07-13.26-14.1-12.35-30.17,1.51-26.5,1.06-28.74-3.61-40.13,1.13,2.76,11.37,8.64,17.93,20.67,7.54,14,3.83,18.91,2.41,32.79,21.21-42.52-10.28-47.77-9.51-64.83Z"/><path class="cls-4" d="M77.49,26.52c.29-.26,5.13,5,9.52,13.46,0-.09,0-.16,0-.25,2.82-19.18-20.73-26-27.62-27.11,10.5,8.44,11.43,35.92,26.43,31.29C82.61,37,79.12,29.38,77.49,26.52Z"/><path class="cls-5" d="M100.17,33.85c-2.57,2.6-4.52,4.55-7.47,11.65l0-.21c-3.08-16,19.06-22,23-22.36C108.61,30.27,102.22,56,93.8,48.75A46,46,0,0,1,100.17,33.85Z"/><path class="cls-6" d="M71.24,53.74c4-1.76,7-3.09,16.14-3.35l-.21-.13C70.72,40,54.59,62.07,52.49,66.3c11.17-4.71,44.75-2.8,38-13.29C82.55,51.67,75.16,53,71.24,53.74Z"/><path class="cls-7" d="M7.76,84.22c.15-.26,5.83-.78,8.24-2.76,3.18-1.8-.49-5.17-6.66.75A16.46,16.46,0,0,0,7.76,84.22Z"/><path class="cls-8" d="M12.2,68.64c6.08-.76,8.85-4,14.25-4.49,6.32-.59,7.73,9.85-6.84,6.93A57.27,57.27,0,0,1,12.2,68.64Z"/></g></g></svg>