<svg xmlns="http://www.w3.org/2000/svg" xmlns:xlink="http://www.w3.org/1999/xlink" viewBox="0 0 152.08 152.07"><defs><style>.cls-1{fill:url(#linear-gradient);}</style><linearGradient id="linear-gradient" y1="76.03" x2="152.08" y2="76.03" gradientUnits="userSpaceOnUse"><stop offset="0" stop-color="#fff33b"/><stop offset="0.04" stop-color="#fee72e"/><stop offset="0.12" stop-color="#fed51b"/><stop offset="0.2" stop-color="#fdca10"/><stop offset="0.28" stop-color="#fdc70c"/><stop offset="0.67" stop-color="#f3903f"/><stop offset="0.89" stop-color="#ed683c"/><stop offset="1" stop-color="#e93e3a"/></linearGradient></defs><title>Asset 8phone</title><g id="Layer_2" data-name="Layer 2"><g id="Layer_1-2" data-name="Layer 1"><path class="cls-1" d="M76,0a76,76,0,1,0,76,76A76,76,0,0,0,76,0Zm38.65,97.81c-2,12.62-10.22,16.49-10.57,16.65a2.58,2.58,0,0,1-1.09.24,2.5,2.5,0,0,1-.81-.13c-.55-.18-1.27-.37-2.15-.61-11.36-3.15-45.95-12.72-62.59-64.35a2.64,2.64,0,0,1,0-1.42c.08-.34,2.18-8.46,16.13-10.77a2.55,2.55,0,0,1,1.54.2c.51.23,12.59,5.92,13.6,17.5a2.62,2.62,0,0,1-.68,2c-4,4.29-7.41,9.57-7.22,11.07.31,2.68,8.7,16.77,23.72,24.11,2.24-.35,7.44-3.77,11.2-7a2.58,2.58,0,0,1,2.33-.56C110,87.67,114.26,95.85,114.44,96.2A2.63,2.63,0,0,1,114.69,97.81Z"/></g></g></svg>